<?xml version="1.0" encoding="UTF-8"?>
<!DOCTYPE svg PUBLIC "-//W3C//DTD SVG 1.1//EN" "http://www.w3.org/Graphics/SVG/1.1/DTD/svg11.dtd">
<!-- Creator: CorelDRAW 2020 (64 Bit) -->
<svg xmlns="http://www.w3.org/2000/svg" xml:space="preserve" width="134.383mm" height="23.7282mm" version="1.1" style="shape-rendering:geometricPrecision; text-rendering:geometricPrecision; image-rendering:optimizeQuality; fill-rule:evenodd; clip-rule:evenodd"
viewBox="0 0 12752.99 2251.82"
 xmlns:xlink="http://www.w3.org/1999/xlink"
 xmlns:xodm="http://www.corel.com/coreldraw/odm/2003">
 <defs>
  <style type="text/css">
   <![CDATA[
    .str0 {stroke:#40A9D7;stroke-width:7.23;stroke-miterlimit:22.9256}
    .fil3 {fill:#D7D6D7}
    .fil6 {fill:#BCBDC0}
    .fil5 {fill:#373534}
    .fil0 {fill:#2A4259}
    .fil1 {fill:#00AFEF;fill-rule:nonzero}
    .fil4 {fill:url(#id0)}
    .fil2 {fill:url(#id1)}
    .fil7 {fill:url(#id2)}
   ]]>
  </style>
  <linearGradient id="id0" gradientUnits="userSpaceOnUse" x1="1957.67" y1="920.04" x2="1911.2" y2="1675.44">
   <stop offset="0" style="stop-opacity:1; stop-color:#4E5050"/>
   <stop offset="1" style="stop-opacity:1; stop-color:#FEFEFE"/>
  </linearGradient>
  <linearGradient id="id1" gradientUnits="userSpaceOnUse" x1="1413.6" y1="2182.48" x2="235.11" y2="1699.98">
   <stop offset="0" style="stop-opacity:1; stop-color:#94BD4B"/>
   <stop offset="1" style="stop-opacity:1; stop-color:#FEFEFE"/>
  </linearGradient>
  <linearGradient id="id2" gradientUnits="userSpaceOnUse" x1="2488.29" y1="69.66" x2="3667.73" y2="549.82">
   <stop offset="0" style="stop-opacity:1; stop-color:#2E7AA3"/>
   <stop offset="1" style="stop-opacity:1; stop-color:#FEFEFE"/>
  </linearGradient>
 </defs>
 <g id="Camada_x0020_1">
  <metadata id="CorelCorpID_0Corel-Layer"/>
  <g id="VISION_x0020_NOVO_x0020_CDR.cdr">
   <g>
    <polygon class="fil0" points="4873.66,1581.5 4122.77,256.4 4468.07,256.4 4994.11,1214.21 5495.52,256.4 5796.66,256.4 5082.65,1581.5 "/>
    <polygon class="fil0" points="6063.98,1581.5 6366.27,1581.5 6366.27,256.41 6063.98,256.41 "/>
    <path class="fil0" d="M7896.74 488.37l-850.46 0 0 284.59 809.89 0c126.99,0 212.82,22.15 257.47,66.43 44.67,44.29 66.97,126.65 66.97,246.92l0 181.81c0,120.35 -22.3,202.74 -66.97,247.02 -44.65,44.26 -130.49,66.36 -257.47,66.36l-802.55 0c-127.02,0 -212.8,-22.08 -257.48,-66.36 -44.65,-44.28 -66.92,-126.64 -66.92,-247.02l0 -36.43 266.67 -56.4 0 156.67 918.03 0 0 -302.06 -809.89 0c-126.15,0 -211.43,-22.09 -255.68,-66.41 -44.17,-44.22 -66.29,-126.62 -66.29,-246.91l0 -146.76c0,-120.3 22.12,-202.58 66.29,-246.92 44.28,-44.33 129.51,-66.49 255.65,-66.49l737.4 0c122.11,0 206.27,21.36 252.55,63.99 46.34,42.59 69.48,118.24 69.48,226.9l0 27.59 -266.68 63.89 0 -150.4z"/>
    <path class="fil0" d="M9530.74 1331.96l996.65 0 0 -838.6 -996.65 0 0 838.6zm-302.32 -762.15c0,-120.3 22.07,-202.58 66.3,-246.92 44.23,-44.33 129.44,-66.49 255.7,-66.49l956.12 0c126.18,0 211.41,22.16 255.62,66.49 44.25,44.34 66.39,126.63 66.39,246.92l0.03 698.31c0,121.23 -22.17,203.68 -66.42,247.66 -44.21,43.84 -129.44,65.72 -255.62,65.72l-956.12 0c-126.26,0 -211.47,-21.87 -255.7,-65.72 -44.22,-43.98 -66.33,-126.44 -66.33,-247.66l0.03 -698.31z"/>
    <path class="fil0" d="M11203.7 1581.5l0 -1325.09 206.54 0 914.35 781.01c31.11,25.96 58.54,50.46 82.31,73.39 23.76,23.03 45.5,46.68 65.13,70.86 -4.92,-74.41 -8.22,-127.05 -9.78,-158.07 -1.72,-30.82 -2.45,-54.68 -2.45,-71.42l0.03 -695.77 271.57 0 0 1325.09 -206.54 0 -953.67 -818.58c-22.93,-20.92 -43.01,-39.73 -60.14,-56.4 -17.32,-16.72 -33.24,-33.92 -48,-51.46 4.12,40.99 7.14,79.66 9.23,116.03 2.02,36.28 3.06,67.8 3.06,94.59l0 715.83 -271.62 0z"/>
    <polygon class="fil0" points="8548.42,1581.5 8850.73,1581.5 8850.73,256.41 8548.42,256.41 "/>
   </g>
   <path class="fil1 str0" d="M5117.52 1875.85l-178.53 0 0 108.45 178.53 0c12.75,0 21.49,-2.41 26.32,-7.34 4.81,-4.92 7.22,-13.35 7.22,-25.3l0 -43.18c0,-11.95 -2.41,-20.38 -7.22,-25.3 -4.82,-4.93 -13.56,-7.34 -26.32,-7.34zm-230.34 270.52l0 -310.88 250.63 0c23.3,0 40.07,4.72 50.31,14.25 10.24,9.54 15.36,24.9 15.36,46.09l0 69.38c0,20.99 -5.12,36.25 -15.36,45.8 -10.24,9.54 -27.01,14.25 -50.31,14.25l-198.82 0 0 121.1 -51.82 0zm490.92 -43.38l257.27 0 0 -225.33 -257.27 0 0 225.33zm-51.82 -194.2c0,-28.12 5.03,-47.39 15.17,-57.74 10.14,-10.34 29.42,-15.56 57.84,-15.56l214.88 0c28.12,0 47.19,5.12 57.23,15.36 10.14,10.33 15.17,29.62 15.17,57.94l0 163.87c0,28.72 -5.02,48.2 -15.17,58.34 -10.04,10.24 -29.12,15.36 -57.23,15.36l-214.88 0c-28.42,0 -47.7,-5.23 -57.84,-15.67 -10.14,-10.34 -15.17,-29.72 -15.17,-58.04l0 -163.87zm748.5 -32.94l-178.54 0 0 109.05 178.54 0c12.95,0 21.79,-2.31 26.51,-7.02 4.72,-4.73 7.03,-12.96 7.03,-24.7l0 -45.29c0,-11.75 -2.41,-19.99 -7.23,-24.81 -4.82,-4.82 -13.55,-7.23 -26.31,-7.23zm-230.35 270.52l0 -310.88 250.63 0c23.3,0 40.07,4.72 50.31,14.25 10.24,9.54 15.36,24.9 15.36,46.09l0 69.38c0,20.99 -5.12,36.25 -15.36,45.8 -10.24,9.54 -27.01,14.25 -50.31,14.25l-45.69 0 141.98 121.1 -77.12 0 -126.52 -121.1 -91.47 0 0 121.1 -51.82 0zm579.69 -268.71l0 268.71 -51.81 0 0 -268.71 -142.19 0 0 -42.17 336.78 0 0 42.17 -142.79 0zm238.19 152.43l167.49 0 -83.95 -159.06 -83.54 159.06zm-112.77 116.28l169.81 -310.88 55.63 0 172.81 310.88 -57.14 0 -39.66 -76.52 -210.47 0 -39.76 76.52 -51.22 0zm729.21 -270.52l-178.53 0 0 109.05 178.53 0c12.96,0 21.8,-2.31 26.52,-7.02 4.72,-4.73 7.02,-12.96 7.02,-24.7l0 -45.29c0,-11.75 -2.41,-19.99 -7.22,-24.81 -4.82,-4.82 -13.56,-7.23 -26.32,-7.23zm-230.34 270.52l0 -310.88 250.63 0c23.3,0 40.07,4.72 50.31,14.25 10.24,9.54 15.36,24.9 15.36,46.09l0 69.38c0,20.99 -5.12,36.25 -15.36,45.8 -10.24,9.54 -27.01,14.25 -50.31,14.25l-45.69 0 141.99 121.1 -77.12 0 -126.52 -121.1 -91.47 0 0 121.1 -51.82 0zm459.19 0l0 -310.88 51.82 0 0 310.88 -51.82 0zm265.2 -116.28l167.49 0 -83.95 -159.06 -83.54 159.06zm-112.77 116.28l169.8 -310.88 55.64 0 172.8 310.88 -57.13 0 -39.67 -76.52 -210.47 0 -39.76 76.52 -51.21 0zm765.86 -255.25c0.7,6.03 1.31,12.44 1.71,19.07 0.41,6.62 0.61,15.46 0.61,26.51l0 209.67 -43.99 0 0 -310.88 42.37 0 151.03 202.34 140.97 -202.34 47.6 0 0 310.88 -47.6 0 0 -209.67c0,-2.81 0.3,-9.74 1.01,-20.78 0.7,-11.05 1.21,-19.38 1.31,-24.8 -3.92,8.03 -7.34,14.76 -10.45,20.28 -3.01,5.42 -5.72,9.84 -8.03,13.26l-118.89 172.91 -13.26 0 -123.51 -168.3c-0.2,-0.2 -0.7,-0.8 -1.5,-2 -9.04,-12.36 -15.47,-24.41 -19.39,-36.15zm549.87 211.87l257.27 0 0 -225.33 -257.27 0 0 225.33zm-51.82 -194.2c0,-28.12 5.03,-47.39 15.17,-57.74 10.14,-10.34 29.42,-15.56 57.84,-15.56l214.88 0c28.12,0 47.19,5.12 57.23,15.36 10.14,10.33 15.17,29.62 15.17,57.94l0 163.87c0,28.72 -5.02,48.2 -15.17,58.34 -10.04,10.24 -29.12,15.36 -57.23,15.36l-214.88 0c-28.42,0 -47.7,-5.23 -57.84,-15.67 -10.14,-10.34 -15.17,-29.72 -15.17,-58.04l0 -163.87zm518.15 237.58l0 -310.88 32.64 0 232.55 207.96c5.32,4.72 10.95,10.34 16.98,17.07 5.92,6.62 12.04,13.96 18.37,21.99 -1.6,-9.94 -2.71,-20.38 -3.51,-31.33 -0.81,-10.85 -1.21,-25.91 -1.21,-45.09l0 -170.6 47.59 0 0 310.88 -29.12 0 -238.79 -216.19c-1.11,-1.01 -2.91,-2.51 -5.23,-4.73 -11.84,-10.54 -20.57,-20.69 -26.2,-30.23 1.21,9.34 2.01,19.39 2.61,30.13 0.61,10.64 0.9,23.29 0.9,37.75l0 183.26 -47.59 0zm504.78 0l0 -310.88 51.82 0 0 310.88 -51.82 0zm333.77 -268.71l0 268.71 -51.81 0 0 -268.71 -142.19 0 0 -42.17 336.79 0 0 42.17 -142.8 0zm277.75 225.33l257.26 0 0 -225.33 -257.26 0 0 225.33zm-51.82 -194.2c0,-28.12 5.02,-47.39 15.16,-57.74 10.14,-10.34 29.43,-15.56 57.84,-15.56l214.89 0c28.11,0 47.19,5.12 57.23,15.36 10.14,10.33 15.16,29.62 15.16,57.94l0 163.87c0,28.72 -5.01,48.2 -15.16,58.34 -10.04,10.24 -29.12,15.36 -57.23,15.36l-214.89 0c-28.41,0 -47.7,-5.23 -57.84,-15.67 -10.14,-10.34 -15.16,-29.72 -15.16,-58.04l0 -163.87zm748.49 -32.94l-178.54 0 0 109.05 178.54 0c12.95,0 21.79,-2.31 26.52,-7.02 4.72,-4.73 7.02,-12.96 7.02,-24.7l0 -45.29c0,-11.75 -2.41,-19.99 -7.23,-24.81 -4.82,-4.82 -13.55,-7.23 -26.31,-7.23zm-230.35 270.52l0 -310.88 250.63 0c23.3,0 40.08,4.72 50.32,14.25 10.24,9.54 15.36,24.9 15.36,46.09l0 69.38c0,20.99 -5.12,36.25 -15.36,45.8 -10.24,9.54 -27.02,14.25 -50.32,14.25l-45.69 0 141.99 121.1 -77.12 0 -126.53 -121.1 -91.47 0 0 121.1 -51.82 0zm522.26 -116.28l167.49 0 -83.95 -159.06 -83.54 159.06zm-112.76 116.28l169.8 -310.88 55.63 0 172.81 310.88 -57.14 0 -39.66 -76.52 -210.47 0 -39.76 76.52 -51.21 0zm662.63 -268.71l-111.96 0 0 225.33 111.96 0c50.4,0 86.06,-8.84 106.84,-26.52 20.78,-17.57 31.23,-46.8 31.23,-87.66 0,-39.36 -10.65,-67.78 -31.84,-85.15 -21.18,-17.38 -56.63,-26 -106.23,-26zm7.33 -42.17c28.62,0 52.41,1.9 71.3,5.72 18.88,3.81 34.94,9.94 48.1,18.37 19.98,13.15 35.64,31.23 47.19,54.12 11.44,22.99 17.18,48.11 17.18,75.31 0,29.02 -5.63,55.13 -16.87,78.43 -11.35,23.19 -27.11,41.47 -47.5,54.82 -12.75,8.24 -28.62,14.26 -47.7,18.17 -18.98,3.92 -42.88,5.93 -71.7,5.93l-171.11 0 0 -310.88 171.11 0zm357.18 194.6l167.49 0 -83.95 -159.06 -83.54 159.06zm-112.76 116.28l169.8 -310.88 55.63 0 172.81 310.88 -57.14 0 -39.66 -76.52 -210.47 0 -39.76 76.52 -51.21 0z"/>
   <path class="fil2" d="M3285.42 1465.97c-591.61,609.21 -1703.37,952.49 -2725.08,704.58 -197.03,-47.8 -384.27,-113.14 -560.34,-192.49l316.7 -374.59 16.04 7.47c186.84,86.48 386.52,156.88 597.22,208.02 0.08,0.03 0.16,0.05 0.25,0.07l137.27 30.24c824.16,163.2 1625.63,2.12 2217.95,-383.3z"/>
   <path class="fil0" d="M1982.5 641.14c-256.49,-15.77 -477.46,183.54 -493.56,445.19 -16.1,261.61 178.78,486.51 435.28,502.28 256.49,15.78 477.47,-183.54 493.56,-445.14 16.1,-261.65 -178.78,-486.54 -435.28,-502.33z"/>
   <path class="fil0" d="M1701.2 1366.29c55.82,59.56 133.76,100.28 230.08,106.21 332.59,20.46 499.64,-397.8 261.62,-620.6l-2.81 -3.08 -2.85 -3.04 -2.88 -3.02 -2.92 -2.99 -2.95 -2.95 -2.98 -2.88 -3.03 -2.88 -3.05 -2.86 -3.09 -2.78 -3.11 -2.77 -3.14 -2.74 -3.19 -2.68 -3.23 -2.68 -3.25 -2.61 0 0 -3.26 -2.59 -3.32 -2.53 0 0 -3.34 -2.5 -3.38 -2.48 -3.4 -2.42 -3.45 -2.38 -3.46 -2.36 -3.47 -2.29 -0.02 0 -3.5 -2.3 0 0 -3.54 -2.21 0 0 -3.58 -2.17 -0.03 -0.01 -3.6 -2.13 0 0 -3.63 -2.11 0 0 -3.67 -2.06 -3.69 -2.01 -3.7 -1.97 -0.02 0 -3.72 -1.92 -0.02 -0.01 -3.76 -1.88 -0.01 0 -3.79 -1.85 -0.02 0 -3.81 -1.78 -0.01 0 -3.84 -1.77 0 0 -3.87 -1.69 -3.9 -1.67 -3.91 -1.62 -0.01 0 -3.93 -1.56 -0.02 0 -3.95 -1.53 -0.02 -0.01 -3.99 -1.46 0 0 -4.01 -1.43 -0.02 0 -4.01 -1.39 -0.03 -0.01 -4.05 -1.32 0 0 -4.08 -1.28 0 0 -4.1 -1.25 -4.13 -1.19 0 0 -4.16 -1.11 0 0 -4.17 -1.09 -0.01 0 -4.18 -1.04 0 0 -4.23 -0.97 -4.22 -0.98 -4.26 -0.86 -4.25 -0.84 -0.02 0 -4.27 -0.79 -0.02 0 -4.31 -0.74 -0.02 0 -4.31 -0.67 -0.01 0 -4.36 -0.63 0 0 -4.36 -0.58 -4.37 -0.5 -4.4 -0.47 -4.43 -0.42 -4.43 -0.37 -4.45 -0.29c-195.14,-12 -362.72,138.34 -374.89,336.07l-0.3 5.47 -0.21 5.42 -0.14 5.43 -0.05 5.42 0.03 5.36 0.1 5.37 0.18 5.34 0.26 5.34 0.32 5.3 0.43 5.32 0.49 5.25 0 0 0.57 5.24 0.63 5.23 0 0 0.71 5.22 0.79 5.2 0.86 5.15 0.93 5.15 0 0 1.02 5.12 1.06 5.1 1.16 5.06 0 0 1.23 5 1.28 5.04 1.36 4.97 0.01 0 1.41 4.97 0.02 0 1.49 4.94 1.58 4.89 1.62 4.84 0.01 0 1.7 4.85 1.75 4.83 1.85 4.76 0.02 0 1.87 4.75 1.96 4.72 0 0 2.03 4.68 0.01 0 2.09 4.63 2.14 4.61 0.02 0.01 2.21 4.56 0 0 2.29 4.53 0 0 2.33 4.51 0.02 0 2.39 4.44 2.47 4.44 0 0 2.51 4.37 0.02 0 2.57 4.36 0 0 2.65 4.31 0 0 2.7 4.27 0 0 2.75 4.22 0.01 0 2.82 4.2 0.01 0 2.86 4.13 0.02 0 2.91 4.1 0.01 0 2.99 4.04 3.06 4.03 3.08 3.97 0 0 3.14 3.92 0.03 0 3.18 3.87 3.26 3.84 0.02 0 3.29 3.76 0.01 0 3.36 3.76 3.42 3.67 3.45 3.66 0 0 3.54 3.59 3.55 3.55 3.61 3.49 0 0 3.67 3.42 3.72 3.41 3.77 3.32z"/>
   <path class="fil3" d="M1777.29 805.16c-300.59,179.82 -190.35,646.16 153.99,667.34 344.31,21.18 511.28,-427.82 234.94,-643.42 -111.81,-87.19 -267.51,-96.56 -388.93,-23.92z"/>
   <path class="fil4" d="M1812.67 867.4c-240.18,143.67 -152.1,516.31 123.05,533.23 275.13,16.93 408.54,-341.84 187.73,-514.11 -89.34,-69.66 -213.74,-77.14 -310.78,-19.11z"/>
   <path class="fil5" d="M1884.63 993.86c-117.48,70.36 -74.33,252.33 60.06,260.6 134.6,8.28 199.72,-167.02 91.7,-251.23 -43.58,-34.08 -104.3,-37.61 -151.76,-9.37z"/>
   <path class="fil6" d="M1869.84 1062.62c-51.03,-39.8 -20.25,-122.72 43.39,-118.81 63.46,3.91 83.9,89.8 28.28,123.22 -22.29,13.41 -51.04,11.44 -71.67,-4.41z"/>
   <path class="fil6" d="M2006.14 1256.69c-25.05,-19.69 -9.85,-60.53 21.31,-58.61 31.28,1.93 41.35,44.32 14.04,60.78 -11.04,6.57 -25.15,5.69 -35.35,-2.17z"/>
   <path class="fil0" d="M922.02 1828.05l0 0zm2355.28 -353.11l-0.19 0.11c-560,283.38 -1260.01,387.38 -1977.29,245.32 -46.29,-9.17 -92.14,-19.26 -137.4,-30.24 -250.36,-60.75 -485.02,-148.78 -700.78,-258.58l-153.09 181 3.53 1.63 5.96 2.78 5.87 2.7 0.68 0.37c186.75,86.42 386.47,156.82 597.13,207.95l0.26 0.06c41.7,10.12 83.79,19.46 126.27,28.04l0.98 0.21 5.55 1.11 4.56 0.88c824.05,163.27 1625.4,2.18 2217.76,-383.22l0.2 -0.11 -0.09 0.05 0.09 -0.07z"/>
   <g>
    <path class="fil7" d="M617.88 789.88c590.39,-610.37 1701.48,-955.87 2723.68,-709.99 197.13,47.42 384.5,112.38 560.71,191.4l-315.94 375.2 -16.06 -7.43c-187,-86.11 -386.83,-156.12 -597.63,-206.83 -0.09,-0.04 -0.17,-0.04 -0.25,-0.06l-137.35 -29.98c-824.46,-161.58 -1625.63,1.11 -2217.17,387.69z"/>
    <path class="fil0" d="M2972.44 432.13l0 0zm-2354.56 357.75c60.02,-34.98 123.13,-68.47 188.86,-100.3 -65.73,31.84 -128.86,65.35 -188.87,100.34 559.49,-284.56 1259.35,-390 1976.98,-249.35 46.32,9.08 92.19,19.09 137.45,29.98 250.5,60.25 485.34,147.83 701.31,257.19l152.72 -181.32 -3.53 -1.62 -5.96 -2.76 -5.87 -2.7 -0.69 -0.36c-186.93,-86.06 -386.78,-156.06 -597.56,-206.77l-0.25 -0.06c-41.71,-10.03 -83.83,-19.29 -126.31,-27.81l-0.98 -0.19 -5.56 -1.1 -4.58 -0.87c-4.49,-0.88 -9,-1.69 -13.49,-2.54 -819.71,-157.18 -1615.37,5.79 -2203.67,390.25z"/>
   </g>
  </g>
 </g>
</svg>
